<?xml version="1.0" encoding="UTF-8"?>
<svg xmlns="http://www.w3.org/2000/svg" xmlns:xlink="http://www.w3.org/1999/xlink" width="59pt" height="53pt" viewBox="0 0 59 53" version="1.1">
<g id="surface1">
<path style=" stroke:none;fill-rule:nonzero;fill:rgb(100%,100%,100%);fill-opacity:1;" d="M 6.34375 42.589844 C 6.453125 42.589844 6.558594 42.609375 6.660156 42.648438 C 6.761719 42.6875 6.855469 42.75 6.929688 42.828125 C 7.007812 42.910156 7.070312 43.003906 7.109375 43.109375 C 7.148438 43.214844 7.167969 43.324219 7.164062 43.4375 L 7.164062 52.015625 C 7.167969 52.125 7.148438 52.238281 7.109375 52.339844 C 7.066406 52.445312 7.007812 52.539062 6.929688 52.617188 C 6.773438 52.773438 6.5625 52.863281 6.34375 52.863281 C 6.121094 52.863281 5.910156 52.773438 5.753906 52.617188 C 5.675781 52.539062 5.617188 52.445312 5.578125 52.339844 C 5.535156 52.238281 5.515625 52.125 5.519531 52.015625 L 5.519531 51.335938 L 5.824219 51.460938 C 5.804688 51.621094 5.738281 51.773438 5.632812 51.894531 C 5.480469 52.085938 5.308594 52.257812 5.109375 52.402344 C 4.875 52.578125 4.613281 52.71875 4.335938 52.824219 C 4.027344 52.941406 3.695312 53 3.367188 52.996094 C 2.757812 53.003906 2.164062 52.832031 1.652344 52.503906 C 1.136719 52.167969 0.71875 51.699219 0.445312 51.148438 C 0.152344 50.523438 0 49.839844 0 49.148438 C 0 48.457031 0.152344 47.773438 0.445312 47.148438 C 0.71875 46.597656 1.132812 46.128906 1.644531 45.789062 C 2.140625 45.464844 2.722656 45.292969 3.316406 45.296875 C 3.683594 45.292969 4.046875 45.355469 4.394531 45.476562 C 4.703125 45.585938 4.992188 45.742188 5.253906 45.933594 C 5.46875 46.09375 5.65625 46.28125 5.816406 46.496094 C 5.925781 46.632812 5.996094 46.800781 6.011719 46.976562 L 5.519531 47.15625 L 5.519531 43.4375 C 5.515625 43.324219 5.535156 43.214844 5.578125 43.113281 C 5.617188 43.007812 5.675781 42.914062 5.753906 42.832031 C 5.828125 42.753906 5.921875 42.691406 6.023438 42.648438 C 6.125 42.609375 6.234375 42.589844 6.34375 42.589844 Z M 3.574219 51.472656 C 3.949219 51.480469 4.316406 51.375 4.628906 51.167969 C 4.933594 50.960938 5.179688 50.671875 5.335938 50.335938 C 5.507812 49.964844 5.59375 49.5625 5.589844 49.15625 C 5.597656 48.742188 5.507812 48.332031 5.335938 47.957031 C 5.175781 47.625 4.933594 47.339844 4.628906 47.132812 C 4.316406 46.925781 3.949219 46.820312 3.574219 46.828125 C 3.207031 46.820312 2.84375 46.929688 2.535156 47.132812 C 2.230469 47.339844 1.988281 47.628906 1.832031 47.960938 C 1.660156 48.335938 1.574219 48.746094 1.578125 49.160156 C 1.574219 49.566406 1.660156 49.96875 1.832031 50.335938 C 1.988281 50.671875 2.234375 50.960938 2.539062 51.167969 C 2.847656 51.371094 3.207031 51.480469 3.574219 51.472656 Z M 3.574219 51.472656 "/>
<path style=" stroke:none;fill-rule:nonzero;fill:rgb(100%,100%,100%);fill-opacity:1;" d="M 9.902344 44.535156 C 9.589844 44.535156 9.371094 44.484375 9.246094 44.382812 C 9.117188 44.28125 9.050781 44.097656 9.050781 43.839844 L 9.050781 43.574219 C 9.050781 43.304688 9.125 43.125 9.269531 43.03125 C 9.410156 42.9375 9.628906 42.886719 9.914062 42.882812 C 10.234375 42.882812 10.457031 42.933594 10.585938 43.035156 C 10.714844 43.136719 10.777344 43.320312 10.777344 43.582031 L 10.777344 43.84375 C 10.777344 44.113281 10.710938 44.292969 10.570312 44.390625 C 10.433594 44.484375 10.210938 44.53125 9.902344 44.535156 Z M 10.738281 52.015625 C 10.742188 52.125 10.722656 52.238281 10.683594 52.339844 C 10.640625 52.445312 10.582031 52.539062 10.503906 52.617188 C 10.347656 52.773438 10.136719 52.863281 9.917969 52.863281 C 9.695312 52.863281 9.484375 52.773438 9.328125 52.617188 C 9.25 52.539062 9.191406 52.445312 9.152344 52.339844 C 9.109375 52.238281 9.089844 52.125 9.09375 52.015625 L 9.09375 46.28125 C 9.089844 46.171875 9.109375 46.0625 9.152344 45.957031 C 9.191406 45.851562 9.25 45.757812 9.328125 45.679688 C 9.484375 45.523438 9.695312 45.4375 9.917969 45.4375 C 10.136719 45.4375 10.347656 45.523438 10.503906 45.679688 C 10.582031 45.757812 10.640625 45.851562 10.683594 45.957031 C 10.722656 46.0625 10.742188 46.171875 10.738281 46.28125 Z M 10.738281 52.015625 "/>
<path style=" stroke:none;fill-rule:nonzero;fill:rgb(100%,100%,100%);fill-opacity:1;" d="M 16.585938 45.296875 C 17.261719 45.296875 17.773438 45.441406 18.125 45.734375 C 18.484375 46.027344 18.738281 46.429688 18.851562 46.878906 C 18.988281 47.394531 19.058594 47.929688 19.050781 48.46875 L 19.050781 52.019531 C 19.054688 52.132812 19.035156 52.242188 18.996094 52.347656 C 18.953125 52.449219 18.894531 52.542969 18.816406 52.625 C 18.660156 52.78125 18.449219 52.867188 18.230469 52.867188 C 18.007812 52.867188 17.796875 52.78125 17.640625 52.625 C 17.5625 52.542969 17.503906 52.449219 17.464844 52.347656 C 17.421875 52.242188 17.402344 52.132812 17.40625 52.019531 L 17.40625 48.460938 C 17.410156 48.183594 17.371094 47.902344 17.289062 47.636719 C 17.21875 47.398438 17.074219 47.191406 16.875 47.046875 C 16.671875 46.902344 16.382812 46.828125 16.011719 46.828125 C 15.6875 46.816406 15.371094 46.890625 15.085938 47.046875 C 14.84375 47.183594 14.644531 47.390625 14.511719 47.636719 C 14.378906 47.890625 14.308594 48.175781 14.3125 48.460938 L 14.3125 52.015625 C 14.316406 52.125 14.296875 52.238281 14.257812 52.339844 C 14.21875 52.445312 14.15625 52.539062 14.082031 52.617188 C 13.921875 52.773438 13.710938 52.863281 13.492188 52.863281 C 13.269531 52.863281 13.058594 52.773438 12.902344 52.617188 C 12.824219 52.539062 12.765625 52.445312 12.726562 52.339844 C 12.683594 52.238281 12.667969 52.125 12.667969 52.015625 L 12.667969 46.28125 C 12.667969 46.171875 12.6875 46.0625 12.726562 45.957031 C 12.765625 45.851562 12.824219 45.757812 12.902344 45.679688 C 13.058594 45.523438 13.269531 45.4375 13.492188 45.4375 C 13.710938 45.4375 13.921875 45.523438 14.082031 45.679688 C 14.15625 45.757812 14.21875 45.851562 14.257812 45.957031 C 14.296875 46.0625 14.316406 46.171875 14.3125 46.28125 L 14.3125 46.878906 L 14.105469 46.835938 C 14.207031 46.65625 14.324219 46.484375 14.464844 46.332031 C 14.628906 46.144531 14.8125 45.972656 15.011719 45.824219 C 15.230469 45.664062 15.46875 45.535156 15.722656 45.445312 C 16 45.34375 16.292969 45.296875 16.585938 45.296875 Z M 16.585938 45.296875 "/>
<path style=" stroke:none;fill-rule:nonzero;fill:rgb(100%,100%,100%);fill-opacity:1;" d="M 28.011719 49.15625 C 28.023438 49.855469 27.851562 50.550781 27.511719 51.160156 C 27.191406 51.726562 26.726562 52.191406 26.167969 52.511719 C 25.589844 52.832031 24.941406 53 24.285156 53 C 23.625 53 22.976562 52.832031 22.402344 52.511719 C 21.839844 52.191406 21.378906 51.726562 21.058594 51.160156 C 20.730469 50.542969 20.558594 49.855469 20.558594 49.15625 C 20.558594 48.453125 20.730469 47.765625 21.058594 47.148438 C 21.378906 46.585938 21.84375 46.113281 22.402344 45.789062 C 22.976562 45.46875 23.625 45.296875 24.285156 45.296875 C 24.941406 45.296875 25.589844 45.46875 26.167969 45.789062 C 26.726562 46.113281 27.191406 46.585938 27.511719 47.148438 C 27.851562 47.761719 28.023438 48.453125 28.011719 49.15625 Z M 26.367188 49.15625 C 26.378906 48.730469 26.28125 48.304688 26.085938 47.925781 C 25.910156 47.59375 25.652344 47.3125 25.332031 47.117188 C 25.015625 46.925781 24.652344 46.824219 24.285156 46.824219 C 23.914062 46.824219 23.554688 46.925781 23.238281 47.117188 C 22.917969 47.3125 22.65625 47.59375 22.480469 47.925781 C 22.285156 48.304688 22.191406 48.730469 22.199219 49.15625 C 22.191406 49.578125 22.289062 49.996094 22.480469 50.371094 C 22.65625 50.703125 22.917969 50.984375 23.238281 51.183594 C 23.554688 51.371094 23.914062 51.472656 24.285156 51.472656 C 24.652344 51.472656 25.015625 51.371094 25.332031 51.183594 C 25.652344 50.984375 25.910156 50.703125 26.085938 50.371094 C 26.28125 49.996094 26.375 49.578125 26.367188 49.15625 Z M 26.367188 49.15625 "/>
<path style=" stroke:none;fill-rule:nonzero;fill:rgb(100%,100%,100%);fill-opacity:1;" d="M 33.324219 45.574219 C 33.425781 45.574219 33.527344 45.589844 33.621094 45.628906 C 33.714844 45.664062 33.800781 45.722656 33.871094 45.792969 C 34.011719 45.941406 34.089844 46.136719 34.089844 46.339844 C 34.089844 46.546875 34.011719 46.742188 33.871094 46.890625 C 33.800781 46.960938 33.714844 47.015625 33.621094 47.054688 C 33.527344 47.089844 33.425781 47.109375 33.324219 47.105469 L 29.699219 47.105469 C 29.597656 47.109375 29.496094 47.089844 29.402344 47.054688 C 29.308594 47.015625 29.222656 46.960938 29.148438 46.890625 C 29.007812 46.742188 28.929688 46.546875 28.929688 46.339844 C 28.929688 46.136719 29.007812 45.941406 29.148438 45.792969 C 29.222656 45.722656 29.308594 45.664062 29.402344 45.628906 C 29.496094 45.589844 29.597656 45.574219 29.699219 45.574219 Z M 33.171875 42.589844 C 33.371094 42.589844 33.570312 42.617188 33.761719 42.675781 C 33.941406 42.722656 34.105469 42.816406 34.242188 42.945312 C 34.304688 43.007812 34.355469 43.085938 34.390625 43.171875 C 34.421875 43.257812 34.4375 43.347656 34.433594 43.4375 C 34.4375 43.539062 34.421875 43.636719 34.390625 43.730469 C 34.355469 43.824219 34.304688 43.910156 34.234375 43.984375 C 34.175781 44.046875 34.105469 44.097656 34.027344 44.132812 C 33.949219 44.167969 33.863281 44.183594 33.777344 44.183594 C 33.652344 44.175781 33.527344 44.15625 33.40625 44.121094 C 33.25 44.082031 33.089844 44.0625 32.925781 44.058594 C 32.738281 44.046875 32.550781 44.101562 32.398438 44.210938 C 32.28125 44.304688 32.195312 44.425781 32.144531 44.566406 C 32.105469 44.679688 32.082031 44.800781 32.078125 44.921875 L 32.078125 52.011719 C 32.082031 52.121094 32.0625 52.234375 32.023438 52.335938 C 31.980469 52.441406 31.921875 52.535156 31.84375 52.617188 C 31.6875 52.769531 31.476562 52.859375 31.253906 52.859375 C 31.035156 52.859375 30.824219 52.769531 30.667969 52.617188 C 30.589844 52.535156 30.53125 52.441406 30.488281 52.335938 C 30.449219 52.234375 30.429688 52.121094 30.433594 52.011719 L 30.433594 44.9375 C 30.429688 44.625 30.484375 44.316406 30.601562 44.03125 C 30.722656 43.746094 30.898438 43.484375 31.117188 43.269531 C 31.578125 42.816406 32.261719 42.589844 33.175781 42.589844 Z M 33.171875 42.589844 "/>
<path style=" stroke:none;fill-rule:nonzero;fill:rgb(100%,100%,100%);fill-opacity:1;" d="M 42.300781 49.15625 C 42.3125 49.855469 42.140625 50.550781 41.800781 51.160156 C 41.480469 51.726562 41.015625 52.191406 40.457031 52.511719 C 39.878906 52.832031 39.230469 53 38.574219 53 C 37.914062 53 37.269531 52.832031 36.691406 52.511719 C 36.128906 52.191406 35.667969 51.726562 35.347656 51.160156 C 35.019531 50.542969 34.847656 49.855469 34.847656 49.15625 C 34.847656 48.453125 35.019531 47.765625 35.347656 47.148438 C 35.667969 46.585938 36.132812 46.113281 36.691406 45.789062 C 37.265625 45.46875 37.914062 45.296875 38.574219 45.296875 C 39.234375 45.296875 39.878906 45.46875 40.457031 45.789062 C 41.015625 46.113281 41.480469 46.585938 41.800781 47.148438 C 42.140625 47.761719 42.3125 48.453125 42.300781 49.15625 Z M 40.65625 49.15625 C 40.667969 48.730469 40.570312 48.304688 40.375 47.925781 C 40.199219 47.59375 39.941406 47.3125 39.621094 47.117188 C 39.304688 46.925781 38.941406 46.824219 38.574219 46.824219 C 38.203125 46.824219 37.84375 46.925781 37.527344 47.117188 C 37.207031 47.3125 36.945312 47.59375 36.769531 47.925781 C 36.578125 48.304688 36.480469 48.730469 36.492188 49.15625 C 36.480469 49.578125 36.578125 49.996094 36.769531 50.371094 C 36.945312 50.703125 37.207031 50.984375 37.527344 51.183594 C 37.84375 51.371094 38.203125 51.472656 38.574219 51.472656 C 38.941406 51.472656 39.304688 51.371094 39.621094 51.183594 C 39.941406 50.984375 40.199219 50.703125 40.375 50.371094 C 40.570312 49.996094 40.667969 49.578125 40.65625 49.15625 Z M 40.65625 49.15625 "/>
<path style=" stroke:none;fill-rule:nonzero;fill:rgb(100%,100%,100%);fill-opacity:1;" d="M 50.847656 49.15625 C 50.863281 49.855469 50.6875 50.550781 50.347656 51.160156 C 50.027344 51.726562 49.5625 52.191406 49.003906 52.511719 C 48.425781 52.832031 47.78125 53 47.121094 53 C 46.464844 53 45.816406 52.832031 45.238281 52.511719 C 44.675781 52.191406 44.214844 51.726562 43.894531 51.160156 C 43.566406 50.542969 43.394531 49.855469 43.394531 49.15625 C 43.394531 48.453125 43.566406 47.765625 43.894531 47.148438 C 44.214844 46.585938 44.675781 46.113281 45.234375 45.789062 C 45.8125 45.46875 46.460938 45.296875 47.121094 45.296875 C 47.777344 45.296875 48.425781 45.46875 49.003906 45.789062 C 49.5625 46.113281 50.023438 46.585938 50.34375 47.148438 C 50.6875 47.761719 50.863281 48.453125 50.847656 49.15625 Z M 49.203125 49.15625 C 49.214844 48.730469 49.117188 48.304688 48.925781 47.925781 C 48.75 47.59375 48.488281 47.3125 48.167969 47.117188 C 47.851562 46.925781 47.488281 46.824219 47.121094 46.824219 C 46.753906 46.824219 46.390625 46.925781 46.074219 47.117188 C 45.753906 47.3125 45.492188 47.59375 45.320312 47.925781 C 45.125 48.304688 45.027344 48.730469 45.039062 49.15625 C 45.027344 49.578125 45.125 49.996094 45.320312 50.371094 C 45.492188 50.703125 45.753906 50.984375 46.074219 51.183594 C 46.390625 51.371094 46.753906 51.472656 47.121094 51.472656 C 47.488281 51.472656 47.851562 51.371094 48.167969 51.183594 C 48.488281 50.984375 48.75 50.703125 48.925781 50.371094 C 49.117188 49.996094 49.214844 49.578125 49.203125 49.15625 Z M 49.203125 49.15625 "/>
<path style=" stroke:none;fill-rule:nonzero;fill:rgb(100%,100%,100%);fill-opacity:1;" d="M 58.179688 42.589844 C 58.289062 42.589844 58.394531 42.609375 58.496094 42.648438 C 58.597656 42.6875 58.691406 42.75 58.765625 42.828125 C 58.84375 42.910156 58.90625 43.003906 58.945312 43.109375 C 58.984375 43.214844 59.003906 43.324219 59 43.4375 L 59 52.015625 C 59.003906 52.125 58.984375 52.238281 58.945312 52.339844 C 58.902344 52.445312 58.84375 52.539062 58.765625 52.617188 C 58.609375 52.773438 58.398438 52.863281 58.179688 52.863281 C 57.957031 52.863281 57.746094 52.773438 57.589844 52.617188 C 57.511719 52.539062 57.453125 52.445312 57.414062 52.339844 C 57.371094 52.238281 57.351562 52.125 57.355469 52.015625 L 57.355469 51.335938 L 57.65625 51.460938 C 57.640625 51.621094 57.574219 51.773438 57.464844 51.894531 C 57.316406 52.085938 57.140625 52.257812 56.945312 52.402344 C 56.707031 52.578125 56.445312 52.71875 56.171875 52.824219 C 55.859375 52.941406 55.53125 53 55.199219 52.996094 C 54.59375 53.003906 54 52.832031 53.492188 52.507812 C 52.972656 52.171875 52.554688 51.703125 52.277344 51.148438 C 51.984375 50.523438 51.832031 49.839844 51.832031 49.148438 C 51.832031 48.457031 51.984375 47.773438 52.277344 47.148438 C 52.550781 46.597656 52.964844 46.128906 53.476562 45.789062 C 53.972656 45.464844 54.554688 45.292969 55.148438 45.296875 C 55.515625 45.292969 55.882812 45.355469 56.226562 45.476562 C 56.535156 45.585938 56.824219 45.742188 57.082031 45.9375 C 57.296875 46.09375 57.488281 46.285156 57.644531 46.5 C 57.757812 46.632812 57.824219 46.800781 57.84375 46.976562 L 57.351562 47.15625 L 57.351562 43.4375 C 57.347656 43.324219 57.367188 43.214844 57.40625 43.113281 C 57.445312 43.007812 57.507812 42.914062 57.585938 42.832031 C 57.660156 42.753906 57.753906 42.691406 57.855469 42.648438 C 57.957031 42.605469 58.066406 42.585938 58.179688 42.589844 Z M 55.410156 51.472656 C 55.785156 51.480469 56.152344 51.375 56.464844 51.167969 C 56.769531 50.960938 57.015625 50.671875 57.171875 50.335938 C 57.34375 49.964844 57.429688 49.5625 57.425781 49.15625 C 57.433594 48.742188 57.34375 48.332031 57.171875 47.957031 C 57.015625 47.621094 56.769531 47.332031 56.464844 47.125 C 56.152344 46.917969 55.785156 46.8125 55.410156 46.820312 C 55.042969 46.8125 54.679688 46.921875 54.371094 47.125 C 54.066406 47.332031 53.820312 47.621094 53.664062 47.957031 C 53.492188 48.332031 53.402344 48.742188 53.410156 49.15625 C 53.40625 49.5625 53.492188 49.964844 53.664062 50.335938 C 53.820312 50.671875 54.066406 50.960938 54.371094 51.167969 C 54.679688 51.375 55.042969 51.480469 55.410156 51.472656 Z M 55.410156 51.472656 "/>
<path style=" stroke:none;fill-rule:nonzero;fill:rgb(100%,100%,100%);fill-opacity:1;" d="M 13.984375 28.59375 C 13.40625 28.59375 12.84375 28.421875 12.367188 28.101562 C 11.886719 27.777344 11.511719 27.316406 11.292969 26.78125 C 11.074219 26.242188 11.015625 25.652344 11.128906 25.082031 C 11.238281 24.511719 11.515625 23.988281 11.925781 23.578125 C 12.332031 23.167969 12.851562 22.886719 13.414062 22.773438 C 13.980469 22.660156 14.566406 22.71875 15.097656 22.941406 C 15.628906 23.164062 16.085938 23.539062 16.40625 24.023438 C 16.722656 24.507812 16.894531 25.074219 16.894531 25.65625 C 16.894531 26.4375 16.589844 27.183594 16.042969 27.734375 C 15.496094 28.285156 14.753906 28.59375 13.984375 28.59375 Z M 13.984375 24.675781 C 13.792969 24.675781 13.605469 24.734375 13.445312 24.84375 C 13.285156 24.949219 13.160156 25.101562 13.085938 25.28125 C 13.011719 25.460938 12.992188 25.65625 13.03125 25.847656 C 13.070312 26.039062 13.160156 26.210938 13.296875 26.347656 C 13.433594 26.484375 13.605469 26.578125 13.792969 26.617188 C 13.980469 26.65625 14.175781 26.636719 14.355469 26.5625 C 14.53125 26.488281 14.683594 26.363281 14.789062 26.199219 C 14.898438 26.039062 14.953125 25.851562 14.953125 25.65625 C 14.953125 25.398438 14.851562 25.148438 14.667969 24.964844 C 14.488281 24.78125 14.242188 24.675781 13.984375 24.675781 Z M 13.984375 24.675781 "/>
<path style=" stroke:none;fill-rule:nonzero;fill:rgb(100%,100%,100%);fill-opacity:1;" d="M 43.902344 22.871094 L 21.472656 22.871094 C 21.214844 22.871094 20.96875 22.769531 20.785156 22.585938 C 20.605469 22.402344 20.5 22.152344 20.5 21.890625 C 20.5 21.632812 20.605469 21.382812 20.785156 21.199219 C 20.96875 21.015625 21.214844 20.914062 21.472656 20.914062 L 43.902344 20.914062 C 44.160156 20.914062 44.40625 21.015625 44.589844 21.199219 C 44.773438 21.382812 44.875 21.632812 44.875 21.890625 C 44.875 22.152344 44.773438 22.402344 44.589844 22.585938 C 44.40625 22.769531 44.160156 22.871094 43.902344 22.871094 Z M 43.902344 22.871094 "/>
<path style=" stroke:none;fill-rule:nonzero;fill:rgb(100%,100%,100%);fill-opacity:1;" d="M 44.875 22.871094 L 20.5 22.871094 L 20.5 21.890625 C 20.5 18.628906 21.785156 15.5 24.070312 13.195312 C 26.355469 10.886719 29.457031 9.59375 32.6875 9.59375 C 35.921875 9.59375 39.019531 10.886719 41.304688 13.195312 C 43.589844 15.5 44.875 18.628906 44.875 21.890625 Z M 22.488281 20.914062 L 42.886719 20.914062 C 42.644531 18.351562 41.46875 15.972656 39.582031 14.238281 C 37.695312 12.507812 35.238281 11.546875 32.6875 11.546875 C 30.136719 11.546875 27.679688 12.507812 25.792969 14.238281 C 23.90625 15.972656 22.730469 18.351562 22.488281 20.914062 Z M 22.488281 20.914062 "/>
<path style=" stroke:none;fill-rule:nonzero;fill:rgb(100%,100%,100%);fill-opacity:1;" d="M 32.6875 34.191406 C 30.167969 34.191406 27.707031 33.398438 25.648438 31.929688 C 23.589844 30.460938 22.03125 28.382812 21.191406 25.984375 L 20.734375 24.675781 L 44.636719 24.675781 L 44.183594 25.984375 C 43.339844 28.382812 41.785156 30.460938 39.726562 31.929688 C 37.667969 33.398438 35.210938 34.191406 32.6875 34.191406 Z M 23.582031 26.636719 C 24.445312 28.324219 25.75 29.738281 27.355469 30.726562 C 28.960938 31.714844 30.804688 32.238281 32.6875 32.238281 C 34.570312 32.238281 36.414062 31.714844 38.019531 30.726562 C 39.625 29.738281 40.929688 28.324219 41.792969 26.636719 Z M 23.582031 26.636719 "/>
<path style=" stroke:none;fill-rule:nonzero;fill:rgb(100%,100%,100%);fill-opacity:1;" d="M 41.816406 24.675781 L 16.507812 24.675781 L 16.507812 26.636719 L 41.816406 26.636719 Z M 41.816406 24.675781 "/>
<path style=" stroke:none;fill-rule:nonzero;fill:rgb(100%,100%,100%);fill-opacity:1;" d="M 40.292969 19.632812 C 40.097656 19.632812 39.902344 19.570312 39.742188 19.457031 C 39.578125 19.34375 39.453125 19.183594 39.386719 18.996094 C 39.085938 18.195312 38.628906 17.460938 38.050781 16.839844 C 37.46875 16.214844 36.769531 15.714844 35.996094 15.367188 C 35.875 15.316406 35.769531 15.242188 35.679688 15.148438 C 35.585938 15.054688 35.515625 14.945312 35.46875 14.824219 C 35.421875 14.703125 35.398438 14.570312 35.402344 14.441406 C 35.402344 14.3125 35.433594 14.183594 35.484375 14.0625 C 35.539062 13.945312 35.613281 13.835938 35.707031 13.75 C 35.800781 13.660156 35.914062 13.589844 36.035156 13.542969 C 36.15625 13.5 36.285156 13.476562 36.414062 13.484375 C 36.542969 13.488281 36.667969 13.519531 36.785156 13.574219 C 37.792969 14.03125 38.703125 14.683594 39.464844 15.496094 C 40.222656 16.308594 40.816406 17.265625 41.207031 18.308594 C 41.261719 18.457031 41.28125 18.617188 41.261719 18.773438 C 41.242188 18.929688 41.1875 19.078125 41.097656 19.210938 C 41.007812 19.339844 40.886719 19.445312 40.75 19.519531 C 40.609375 19.59375 40.457031 19.632812 40.296875 19.632812 Z M 40.292969 19.632812 "/>
<path style=" stroke:none;fill-rule:nonzero;fill:rgb(100%,100%,100%);fill-opacity:1;" d="M 45.84375 22.871094 L 19.53125 22.871094 C 19.273438 22.871094 19.027344 22.769531 18.84375 22.585938 C 18.664062 22.402344 18.558594 22.152344 18.558594 21.890625 C 18.558594 21.632812 18.664062 21.382812 18.84375 21.199219 C 19.027344 21.015625 19.273438 20.914062 19.53125 20.914062 L 45.84375 20.914062 C 46.101562 20.914062 46.347656 21.015625 46.53125 21.199219 C 46.714844 21.382812 46.816406 21.632812 46.816406 21.890625 C 46.816406 22.152344 46.714844 22.402344 46.53125 22.585938 C 46.347656 22.769531 46.101562 22.871094 45.84375 22.871094 Z M 45.84375 22.871094 "/>
<path style=" stroke:none;fill-rule:nonzero;fill:rgb(100%,100%,100%);fill-opacity:1;" d="M 35.273438 1.589844 C 34.917969 0.898438 34.308594 0.375 33.570312 0.140625 C 32.835938 -0.0976562 32.035156 -0.03125 31.347656 0.328125 C 30.664062 0.683594 30.144531 1.304688 29.910156 2.046875 C 29.675781 2.789062 29.742188 3.597656 30.097656 4.289062 C 30.167969 4.425781 30.246094 4.554688 30.335938 4.679688 L 32.6875 8.519531 L 35.035156 4.679688 C 35.355469 4.238281 35.546875 3.714844 35.589844 3.171875 C 35.632812 2.625 35.523438 2.078125 35.273438 1.589844 Z M 31.761719 2.644531 C 31.800781 2.519531 31.863281 2.40625 31.945312 2.308594 C 32.027344 2.210938 32.128906 2.128906 32.242188 2.070312 C 32.355469 2.011719 32.480469 1.976562 32.605469 1.964844 C 32.734375 1.953125 32.859375 1.96875 32.980469 2.007812 C 33.164062 2.066406 33.328125 2.179688 33.445312 2.328125 C 33.566406 2.480469 33.636719 2.664062 33.65625 2.859375 C 33.671875 3.050781 33.628906 3.246094 33.535156 3.414062 C 33.445312 3.585938 33.304688 3.722656 33.132812 3.8125 C 32.960938 3.898438 32.769531 3.9375 32.578125 3.914062 C 32.386719 3.890625 32.207031 3.8125 32.0625 3.6875 C 31.914062 3.5625 31.808594 3.398438 31.753906 3.210938 C 31.703125 3.027344 31.703125 2.828125 31.761719 2.644531 Z M 31.761719 2.644531 "/>
</g>
</svg>
