<svg xmlns="http://www.w3.org/2000/svg" viewBox="0 0 1023.99 314.12"><defs><style>.cls-1{fill:#602BB2;}</style></defs><title>Asset 15</title><g id="Layer_2" data-name="Layer 2" fill='#602BB2'><g id="Layer_1-2" data-name="Layer 1"><path class="cls-1" d="M455.25,130.48a8.48,8.48,0,0,0-6.36,2.6,8.92,8.92,0,0,0-2.52,6.46v29.18a35.62,35.62,0,0,0-2.89-2.45,34.93,34.93,0,0,0-9.25-4.9,34.12,34.12,0,0,0-11.69-1.93,32.51,32.51,0,0,0-18.05,5.27,37.44,37.44,0,0,0-12.95,14.55,50,50,0,0,0,0,42.77,37,37,0,0,0,13.09,14.55,33.73,33.73,0,0,0,18.5,5.27A28.75,28.75,0,0,0,433.57,240a34.49,34.49,0,0,0,8.36-4.53,31.22,31.22,0,0,0,4.45-4,8.88,8.88,0,0,0,2.51,6.3,9.09,9.09,0,0,0,12.72,0,8.92,8.92,0,0,0,2.52-6.46V139.54a8.86,8.86,0,0,0-2.52-6.53A8.61,8.61,0,0,0,455.25,130.48Zm-10.88,82.87a22,22,0,0,1-7.62,8.91,20,20,0,0,1-11.39,3.27,19.73,19.73,0,0,1-11.24-3.27,22,22,0,0,1-7.62-8.91,28.52,28.52,0,0,1-2.74-12.62,28.88,28.88,0,0,1,2.74-12.77,22.05,22.05,0,0,1,7.62-8.91,19.76,19.76,0,0,1,11.24-3.27A20,20,0,0,1,436.76,179a22.07,22.07,0,0,1,7.62,8.91,28.91,28.91,0,0,1,2.74,12.77A28.55,28.55,0,0,1,444.38,213.34Z"/><path class="cls-1" d="M493.85,160.92a8.48,8.48,0,0,0-6.36,2.6A8.92,8.92,0,0,0,485,170v61.33a8.91,8.91,0,0,0,2.52,6.46,9.09,9.09,0,0,0,12.72,0,8.92,8.92,0,0,0,2.52-6.46V170a8.93,8.93,0,0,0-2.52-6.46A8.49,8.49,0,0,0,493.85,160.92Z"/><path class="cls-1" d="M501.1,135.23q-2.07-1.63-7.25-1.63-4.74,0-7,1.56T484.53,141v2.82q0,4.16,2.07,5.79t7.1,1.63q5,0,7.25-1.56t2.22-5.87V141Q503.17,136.86,501.1,135.23Z"/><path class="cls-1" d="M582.53,164q-5.7-4.6-16.65-4.6a27.08,27.08,0,0,0-9.32,1.56,30,30,0,0,0-7.69,4.08,36.93,36.93,0,0,0-5.92,5.42c-.6.69-1.13,1.36-1.63,2V170a8.93,8.93,0,0,0-2.52-6.46,9.09,9.09,0,0,0-12.72,0,8.92,8.92,0,0,0-2.52,6.46v61.33a8.91,8.91,0,0,0,2.52,6.46,9.09,9.09,0,0,0,12.72,0,8.92,8.92,0,0,0,2.52-6.46v-38a18.15,18.15,0,0,1,2.15-8.84,16.21,16.21,0,0,1,6.21-6.31,19.52,19.52,0,0,1,10-2.38q6.06,0,9.32,2.38a12.23,12.23,0,0,1,4.51,6.31,29,29,0,0,1,1.26,8.84v38a8.91,8.91,0,0,0,2.52,6.46,9.09,9.09,0,0,0,12.72,0,8.92,8.92,0,0,0,2.52-6.46v-38a62.93,62.93,0,0,0-2.15-17A23.43,23.43,0,0,0,582.53,164Z"/><path class="cls-1" d="M669.38,164.71a41.89,41.89,0,0,0-40.69,0,39.41,39.41,0,0,0-14.5,14.55,45.34,45.34,0,0,0,0,42.92,38.81,38.81,0,0,0,14.5,14.48,42.41,42.41,0,0,0,40.69,0,38.82,38.82,0,0,0,14.5-14.48,45.33,45.33,0,0,0,0-42.92A39.42,39.42,0,0,0,669.38,164.71Zm-.89,49a22.63,22.63,0,0,1-8.14,8.69,22.1,22.1,0,0,1-22.64,0,22.62,22.62,0,0,1-8.14-8.69,26.74,26.74,0,0,1-3-13,27.07,27.07,0,0,1,3-13.14,22.61,22.61,0,0,1,8.14-8.69,22.1,22.1,0,0,1,22.64,0,22.62,22.62,0,0,1,8.14,8.69,27.09,27.09,0,0,1,3,13.14A26.76,26.76,0,0,1,668.49,213.71Z"/><path class="cls-1" d="M751.44,131.37a23,23,0,0,0-6.36-.89q-14.8,0-22.19,7.28a24,24,0,0,0-7.4,17.82v6.83h-8a8.15,8.15,0,0,0-5.92,2.3,8.45,8.45,0,0,0,0,11.73,8.14,8.14,0,0,0,5.92,2.3h8v52.57a8.91,8.91,0,0,0,2.52,6.46,9.09,9.09,0,0,0,12.72,0,8.92,8.92,0,0,0,2.52-6.46V178.74H746.7a8.15,8.15,0,0,0,5.92-2.3,8.45,8.45,0,0,0,0-11.73,8.15,8.15,0,0,0-5.92-2.3H733.24v-7a11.84,11.84,0,0,1,.74-3.79,8.42,8.42,0,0,1,2.74-3.79,8.78,8.78,0,0,1,5.7-1.63,21.28,21.28,0,0,1,5.18.67,18.14,18.14,0,0,0,4,.67,6.79,6.79,0,0,0,5-2.15,8,8,0,0,0,2.15-5.87,7,7,0,0,0-2.07-5.27A12.1,12.1,0,0,0,751.44,131.37Z"/><path class="cls-1" d="M823.71,164.71a41.89,41.89,0,0,0-40.69,0,39.41,39.41,0,0,0-14.5,14.55,45.34,45.34,0,0,0,0,42.92A38.81,38.81,0,0,0,783,236.66a42.41,42.41,0,0,0,40.69,0,38.82,38.82,0,0,0,14.5-14.48,45.33,45.33,0,0,0,0-42.92A39.42,39.42,0,0,0,823.71,164.71Zm-.89,49a22.63,22.63,0,0,1-8.14,8.69,22.1,22.1,0,0,1-22.64,0,22.62,22.62,0,0,1-8.14-8.69,26.74,26.74,0,0,1-3-13,27.07,27.07,0,0,1,3-13.14,22.61,22.61,0,0,1,8.14-8.69,22.1,22.1,0,0,1,22.64,0,22.62,22.62,0,0,1,8.14,8.69,27.09,27.09,0,0,1,3,13.14A26.76,26.76,0,0,1,822.83,213.71Z"/><path class="cls-1" d="M916,164.71a41.89,41.89,0,0,0-40.69,0,39.41,39.41,0,0,0-14.5,14.55,45.34,45.34,0,0,0,0,42.92,38.81,38.81,0,0,0,14.5,14.48,42.41,42.41,0,0,0,40.69,0,38.82,38.82,0,0,0,14.5-14.48,45.33,45.33,0,0,0,0-42.92A39.42,39.42,0,0,0,916,164.71Zm-.89,49A22.63,22.63,0,0,1,907,222.4a22.1,22.1,0,0,1-22.64,0,22.62,22.62,0,0,1-8.14-8.69,26.74,26.74,0,0,1-3-13,27.07,27.07,0,0,1,3-13.14,22.61,22.61,0,0,1,8.14-8.69,22.1,22.1,0,0,1,22.64,0,22.62,22.62,0,0,1,8.14,8.69,27.09,27.09,0,0,1,3,13.14A26.76,26.76,0,0,1,915.15,213.71Z"/><path class="cls-1" d="M1021.48,133a8.61,8.61,0,0,0-6.36-2.53,8.48,8.48,0,0,0-6.36,2.6,8.92,8.92,0,0,0-2.52,6.46v29.18a35.62,35.62,0,0,0-2.89-2.45,34.93,34.93,0,0,0-9.25-4.9,34.12,34.12,0,0,0-11.69-1.93,32.51,32.51,0,0,0-18.05,5.27,37.44,37.44,0,0,0-12.95,14.55,50,50,0,0,0,0,42.77,37,37,0,0,0,13.09,14.55,33.73,33.73,0,0,0,18.5,5.27A28.75,28.75,0,0,0,993.44,240a34.49,34.49,0,0,0,8.36-4.53,31.22,31.22,0,0,0,4.45-4,8.88,8.88,0,0,0,2.51,6.3,9.09,9.09,0,0,0,12.72,0,8.92,8.92,0,0,0,2.52-6.46V139.54A8.86,8.86,0,0,0,1021.48,133Zm-17.24,80.34a22,22,0,0,1-7.62,8.91,20,20,0,0,1-11.39,3.27A19.73,19.73,0,0,1,974,222.25a22,22,0,0,1-7.62-8.91,28.52,28.52,0,0,1-2.74-12.62,28.88,28.88,0,0,1,2.74-12.77A22.05,22.05,0,0,1,974,179a19.76,19.76,0,0,1,11.24-3.27A20,20,0,0,1,996.62,179a22.07,22.07,0,0,1,7.62,8.91,28.91,28.91,0,0,1,2.74,12.77A28.55,28.55,0,0,1,1004.24,213.34Z"/><path class="cls-1" d="M89.62,226.7H52.45a27,27,0,1,0,0,18H96.18a113,113,0,0,0,210.85-6l4.23-12H89.62ZM27,244.7a9,9,0,1,1,9-9A9,9,0,0,1,27,244.7Zm173.44,51.42A95.2,95.2,0,0,1,116,244.7H284.87A95.19,95.19,0,0,1,200.44,296.12Z"/><path class="cls-1" d="M238.44,124.71a9,9,0,1,0-7.32,16.44,59.71,59.71,0,0,1,31.43,33.35,9,9,0,1,0,16.85-6.33A77.82,77.82,0,0,0,238.44,124.71Z"/><path class="cls-1" d="M322.44,192.12h-9.36a113,113,0,0,0-225.28,0H78.44a9,9,0,0,0,0,18h244a9,9,0,0,0,0-18Zm-216.58,0a95,95,0,0,1,189.15,0Z"/><path class="cls-1" d="M178.65,43l21.79,35.26L222.2,43a27,27,0,1,0-45.75-3.61A27.36,27.36,0,0,0,178.65,43Zm13.22-18.68a9,9,0,0,1,11.31-5.84h0a9,9,0,1,1-11.31,5.84Z"/></g></g></svg>