<svg width="99" height="125" viewBox="0 0 99 125" fill="none" xmlns="http://www.w3.org/2000/svg">
<path d="M85.7126 13.1885C84.9296 12.8443 84.0164 12.9855 83.3778 13.5479L76.7402 19.4135L70.1026 13.5479C69.2775 12.8191 68.031 12.8191 67.2046 13.5479L60.5734 19.4123L53.9383 13.5466C53.1145 12.8178 51.8667 12.8178 51.0416 13.5466L44.4103 19.411L37.7804 13.5466C37.1418 12.983 36.2286 12.8418 35.4456 13.186C34.664 13.5302 34.1595 14.2968 34.1595 15.1429V85.1689H14.1712C12.972 85.1689 12 86.1285 12 87.3125V93.4227C12 100.91 18.1689 107 25.7529 107H73.2471C80.8311 107 87 100.91 87 93.4227V15.1454C86.9974 14.2993 86.4942 13.534 85.7126 13.1885ZM25.7517 102.714C20.5637 102.714 16.3425 98.547 16.3425 93.4253V89.4585H55.4288V93.4253C55.4288 97.0163 56.8465 100.283 59.1595 102.714H25.7517ZM82.6549 93.4253C82.6549 98.547 78.4338 102.714 73.2458 102.714H69.1792C63.9912 102.714 59.77 98.547 59.77 93.4253V87.315C59.77 86.131 58.798 85.1715 57.5987 85.1715H38.5033V19.9444L42.9607 23.8872C43.7858 24.6172 45.0336 24.6172 45.8587 23.8872L52.4887 18.0228L59.1237 23.8872C59.9488 24.616 61.1954 24.6172 62.0217 23.8872L68.653 18.0228L75.2906 23.8872C76.1157 24.616 77.3622 24.616 78.1873 23.8872L82.6537 19.9406V93.4253H82.6549Z" fill="black" fill-opacity="0.99"/>
<path d="M44.268 43H50.732C51.9847 43 53 42.1047 53 41C53 39.8953 51.9847 39 50.732 39H44.268C43.0153 39 42 39.8953 42 41C42 42.1047 43.0153 43 44.268 43Z" fill="black" fill-opacity="0.99"/>
<path d="M76.8422 39H59.1616C57.9683 39 57 39.8953 57 41C57 42.1047 57.9683 43 59.1616 43H76.8409C78.0342 43 79 42.1047 79 41C79.0013 39.8941 78.0355 39 76.8422 39Z" fill="black" fill-opacity="0.99"/>
<path d="M44.2586 54H62.7428C63.9903 54 65 53.1047 65 52C65 50.8953 63.9903 50 62.7428 50H44.2586C43.011 50 42 50.8953 42 52C42 53.1047 43.011 54 44.2586 54Z" fill="black" fill-opacity="0.99"/>
<path d="M50.732 61H44.268C43.0153 61 42 61.8953 42 63C42 64.1047 43.0153 65 44.268 65H50.732C51.9847 65 53 64.1047 53 63C53 61.8953 51.9847 61 50.732 61Z" fill="black" fill-opacity="0.99"/>
<path d="M76.8422 61H59.1616C57.9683 61 57 61.8953 57 63C57 64.1047 57.9683 65 59.1616 65H76.8409C78.0342 65 79 64.1047 79 63C79 61.8953 78.0355 61 76.8422 61Z" fill="black" fill-opacity="0.99"/>
<path d="M76.733 50H70.267C69.0154 50 68 50.8953 68 52C68 53.1047 69.0167 54 70.267 54H76.733C77.9859 54 79 53.1047 79 52C79 50.8953 77.9859 50 76.733 50Z" fill="black" fill-opacity="0.99"/>
</svg>
